<svg width="22" height="22" viewBox="0 0 22 22" fill="none" xmlns="http://www.w3.org/2000/svg">
<rect width="22" height="22" fill="white"/>
<path d="M17.9751 16.5148C18.6997 16.4012 20.1989 16.139 20.4857 15.4788C20.6303 15.1387 20.4237 14.8622 20.16 14.8201V14.8193C17.6112 14.3998 16.4624 11.7891 16.4155 11.6779C15.7092 10.4114 17.6263 10.6244 18.3803 9.85212C19.116 9.09496 17.9362 8.27503 17.1981 8.62302C16.8954 8.76524 16.4417 8.9305 16.1398 8.79225C16.2113 7.59335 16.4091 5.60551 15.9237 4.52022C14.291 0.863134 9.47632 0.731248 7.239 2.85415C5.476 4.52578 5.69211 6.24429 5.85737 8.79225C5.30916 9.0314 4.76731 8.55629 4.37244 8.55629C3.95771 8.55629 3.47545 8.82562 3.39759 9.23161C3.29907 9.76472 3.87826 10.1079 4.37959 10.3058C5.23368 10.6411 6.04566 10.7404 5.59518 11.6556C5.59121 11.6628 5.58803 11.6699 5.58565 11.6771C4.94766 13.1342 3.5549 14.5349 1.84037 14.8177C1.56388 14.863 1.37479 15.1546 1.51303 15.4764V15.478C1.79667 16.139 3.3102 16.4036 4.02445 16.5148C4.24532 16.9279 4.07609 17.7439 4.76016 17.7439C5.02632 17.7439 5.54115 17.5699 6.19821 17.5699C7.15558 17.5699 7.48212 17.7789 8.24961 18.3207C9.03775 18.8776 9.90376 19.4219 10.9803 19.3432C12.1013 19.4131 12.934 18.8975 13.7507 18.3223L13.7515 18.3207C14.5476 17.7606 15.1165 17.3466 16.8024 17.678C18.0498 17.9195 17.6859 17.0749 17.9751 16.5148Z" fill="#2A2A2A"/>
</svg>
