<svg width="22" height="22" viewBox="0 0 22 22" fill="none" xmlns="http://www.w3.org/2000/svg">
<rect width="22" height="22" fill="white"/>
<path d="M13.0513 11.3194C13.0513 12.2758 12.2758 13.0513 11.3194 13.0513C10.3629 13.0513 9.58746 12.2758 9.58746 11.3194C9.58746 10.3629 10.3629 9.58743 11.3194 9.58743C12.2758 9.58743 13.0513 10.3629 13.0513 11.3194Z" fill="#2A2A2A"/>
<path d="M14.2444 6.08511H8.39437C7.12099 6.08511 6.08514 7.12096 6.08514 8.39434V14.2444C6.08514 15.5177 7.12099 16.5536 8.39437 16.5536H14.2444C15.5178 16.5536 16.5536 15.5177 16.5536 14.2444V8.39434C16.5536 7.12096 15.5178 6.08511 14.2444 6.08511ZM11.3194 14.2059C9.72773 14.2059 8.43285 12.911 8.43285 11.3194C8.43285 9.7277 9.72773 8.43282 11.3194 8.43282C12.911 8.43282 14.2059 9.7277 14.2059 11.3194C14.2059 12.911 12.911 14.2059 11.3194 14.2059ZM14.6293 8.58677C14.3104 8.58677 14.052 8.32834 14.052 8.00947C14.052 7.6906 14.3104 7.43216 14.6293 7.43216C14.9481 7.43216 15.2066 7.6906 15.2066 8.00947C15.2066 8.32834 14.9481 8.58677 14.6293 8.58677Z" fill="#2A2A2A"/>
<path d="M15.9763 1.46667H6.66243C3.79755 1.46667 1.46667 3.79755 1.46667 6.66243V15.9763C1.46667 18.8412 3.79755 21.172 6.66243 21.172H15.9763C18.8412 21.172 21.172 18.8412 21.172 15.9763V6.66243C21.172 3.79755 18.8412 1.46667 15.9763 1.46667ZM17.7082 14.2444C17.7082 16.1543 16.1543 17.7082 14.2444 17.7082H8.39435C6.48443 17.7082 4.93051 16.1543 4.93051 14.2444V8.39435C4.93051 6.48443 6.48443 4.93051 8.39435 4.93051H14.2444C16.1543 4.93051 17.7082 6.48443 17.7082 8.39435V14.2444Z" fill="#2A2A2A"/>
</svg>
