<svg width="62" height="62" viewBox="0 0 62 62" fill="none" xmlns="http://www.w3.org/2000/svg">
<circle cx="31" cy="31" r="31" fill="#2A2A27"/>
<path d="M31 20.1666H24.5C21.8112 20.1666 21.25 20.7278 21.25 23.4166V41.8333H34.25V23.4166C34.25 20.7278 33.6888 20.1666 31 20.1666Z" stroke="white" stroke-width="1.5" stroke-linejoin="round"/>
<path d="M37.5 26.6666H34.25V41.8333H40.75V29.9166C40.75 27.2278 40.1888 26.6666 37.5 26.6666Z" stroke="white" stroke-width="1.5" stroke-linejoin="round"/>
<path d="M26.6667 24.5L28.8333 24.5M26.6667 27.75L28.8333 27.75M26.6667 31L28.8333 31" stroke="white" stroke-width="1.5" stroke-linecap="round" stroke-linejoin="round"/>
<path d="M30.4583 41.8333V37.5C30.4583 36.4786 30.4583 35.9679 30.141 35.6506C29.8237 35.3333 29.313 35.3333 28.2917 35.3333H27.2083C26.187 35.3333 25.6763 35.3333 25.359 35.6506C25.0417 35.9679 25.0417 36.4786 25.0417 37.5V41.8333" stroke="white" stroke-width="1.5" stroke-linejoin="round"/>
</svg>
