<svg width="62" height="62" viewBox="0 0 62 62" fill="none" xmlns="http://www.w3.org/2000/svg">
<circle cx="31" cy="31" r="31" fill="#2A2A27"/>
<path d="M39.6667 29.9167V26.4697C39.6667 24.6354 39.6667 23.7182 39.3764 22.9857C38.9097 21.808 37.9227 20.8791 36.6715 20.4399C35.8932 20.1667 34.9187 20.1667 32.9697 20.1667C29.559 20.1667 27.8536 20.1667 26.4915 20.6448C24.3019 21.4135 22.5747 23.0391 21.758 25.0999C21.25 26.3818 21.25 27.9869 21.25 31.197V33.9546C21.25 37.2797 21.25 38.9423 22.1683 40.0969C22.4315 40.4277 22.7435 40.7214 23.095 40.969C24.227 41.7666 25.8185 41.8282 28.8333 41.8329" stroke="white" stroke-width="1.5" stroke-linecap="round" stroke-linejoin="round"/>
<path d="M21.25 31C21.25 29.0056 22.8668 27.3889 24.8611 27.3889C25.5824 27.3889 26.4327 27.5153 27.134 27.3274C27.7571 27.1604 28.2438 26.6737 28.4107 26.0506C28.5986 25.3494 28.4722 24.499 28.4722 23.7778C28.4722 21.7834 30.089 20.1667 32.0833 20.1667" stroke="white" stroke-width="1.5" stroke-linecap="round" stroke-linejoin="round"/>
<path d="M33.5434 41.677L33.3865 40.9436L33.5434 41.677ZM32.2396 40.3733L32.9731 40.5301L32.2396 40.3733ZM33.1891 37.621L32.6587 37.0907L33.1891 37.621ZM40.5293 34.7671L41.1788 34.3921L40.5293 34.7671ZM40.5293 36.4146L41.1788 36.7896L40.5293 36.4146ZM39.1496 33.3874L39.5246 32.7379L39.1496 33.3874ZM36.7726 34.0376L37.3029 34.5679L36.7726 34.0376ZM37.5021 33.3874L37.1271 32.7379L37.5021 33.3874ZM39.3488 36.6138L35.7653 40.1973L36.826 41.258L40.4095 37.6745L39.3488 36.6138ZM33.7194 38.1514L37.3029 34.5679L36.2422 33.5072L32.6587 37.0907L33.7194 38.1514ZM33.3865 40.9436C33.1967 40.9842 33.044 41.0168 32.9125 41.0413C32.7799 41.0659 32.6907 41.078 32.6285 41.082C32.4974 41.0903 32.6206 41.0545 32.7414 41.1753L31.6807 42.236C32.0126 42.5679 32.4283 42.5977 32.7237 42.5789C33.0056 42.561 33.3508 42.4852 33.7002 42.4105L33.3865 40.9436ZM31.5062 40.2165C31.4315 40.5659 31.3557 40.9111 31.3378 41.193C31.319 41.4883 31.3488 41.9041 31.6807 42.236L32.7414 41.1753C32.8621 41.2961 32.8264 41.4193 32.8347 41.2882C32.8387 41.226 32.8508 41.1368 32.8754 41.0042C32.8999 40.8727 32.9325 40.72 32.9731 40.5301L31.5062 40.2165ZM39.3488 34.5679C39.7441 34.9632 39.8331 35.0613 39.8798 35.1421L41.1788 34.3921C41.0085 34.0972 40.7365 33.8342 40.4095 33.5072L39.3488 34.5679ZM40.4095 37.6745C40.7365 37.3475 41.0085 37.0845 41.1788 36.7896L39.8798 36.0396C39.8331 36.1204 39.7441 36.2185 39.3488 36.6138L40.4095 37.6745ZM39.8798 35.1421C40.0401 35.4198 40.0401 35.7619 39.8798 36.0396L41.1788 36.7896C41.6071 36.0478 41.6071 35.1339 41.1788 34.3921L39.8798 35.1421ZM40.4095 33.5072C40.0825 33.1802 39.8195 32.9082 39.5246 32.7379L38.7746 34.0369C38.8554 34.0836 38.9535 34.1726 39.3488 34.5679L40.4095 33.5072ZM37.3029 34.5679C37.6982 34.1726 37.7963 34.0836 37.8771 34.0369L37.1271 32.7379C36.8322 32.9082 36.5692 33.1802 36.2422 33.5072L37.3029 34.5679ZM39.5246 32.7379C38.7828 32.3096 37.8689 32.3096 37.1271 32.7379L37.8771 34.0369C38.1548 33.8766 38.4969 33.8766 38.7746 34.0369L39.5246 32.7379ZM35.7653 40.1973C35.5423 40.4204 35.2405 40.5611 34.824 40.6675C34.6153 40.7207 34.3934 40.7618 34.1483 40.8041C33.912 40.8449 33.6443 40.8885 33.3865 40.9436L33.7002 42.4105C33.9204 42.3634 34.1461 42.3267 34.4037 42.2822C34.6524 42.2392 34.9246 42.1899 35.195 42.1209C35.7367 41.9826 36.3331 41.7508 36.826 41.258L35.7653 40.1973ZM32.9731 40.5301C33.0282 40.2724 33.0718 40.0047 33.1126 39.7684C33.1549 39.5233 33.196 39.3014 33.2492 39.0927C33.3556 38.6762 33.4963 38.3744 33.7194 38.1514L32.6587 37.0907C32.1659 37.5836 31.9341 38.18 31.7958 38.7217C31.7268 38.9921 31.6775 39.2643 31.6345 39.513C31.59 39.7706 31.5533 39.9963 31.5062 40.2165L32.9731 40.5301Z" fill="white"/>
</svg>
