<svg width="62" height="62" viewBox="0 0 62 62" fill="none" xmlns="http://www.w3.org/2000/svg">
<circle cx="31" cy="31" r="31" fill="#2A2A27"/>
<path d="M20.1667 28.8334L25.5833 22.3334M25.5833 22.3334L31.4487 28.1988C31.7618 28.5119 31.9184 28.6684 32.1175 28.7509C32.3166 28.8334 32.538 28.8334 32.9808 28.8334H41.8333L37.716 23.8926C37.0771 23.1258 36.7576 22.7425 36.3209 22.5379C35.8841 22.3334 35.3851 22.3334 34.387 22.3334H25.5833Z" stroke="white" stroke-width="1.5" stroke-linecap="round" stroke-linejoin="round"/>
<path d="M29.9167 26.6667V39.6667H21.25V27.5953" stroke="white" stroke-width="1.5" stroke-linecap="round" stroke-linejoin="round"/>
<path d="M29.9167 39.6667H40.75V27.75" stroke="white" stroke-width="1.5" stroke-linecap="round" stroke-linejoin="round"/>
<path d="M22.3333 26.125V22.3334" stroke="white" stroke-width="1.5" stroke-linecap="round" stroke-linejoin="round"/>
<path d="M25.592 31L25.5823 31" stroke="white" stroke-width="2" stroke-linecap="round" stroke-linejoin="round"/>
<path d="M25.5833 39.6667V35.3334" stroke="white" stroke-width="1.5" stroke-linecap="round" stroke-linejoin="round"/>
<path d="M34.25 33.1667L36.4167 33.1667" stroke="white" stroke-width="1.5" stroke-linecap="round" stroke-linejoin="round"/>
</svg>
