<svg width="62" height="62" viewBox="0 0 62 62" fill="none" xmlns="http://www.w3.org/2000/svg">
<circle cx="31" cy="31" r="31" fill="#2A2A27"/>
<path d="M29.0032 20.6606C26.0665 21.815 23.7049 23.5625 22.1635 25.0001C21.4876 25.6305 21.1497 25.9457 21.2762 26.3062C21.4026 26.6667 21.8729 26.6667 22.8136 26.6667H39.1864C40.1271 26.6667 40.5974 26.6667 40.7238 26.3062C40.8503 25.9457 40.5124 25.6305 39.8365 25.0001C38.2951 23.5625 35.9335 21.815 32.9968 20.6606C32.1591 20.3313 31.7402 20.1667 31 20.1667C30.2598 20.1667 29.8409 20.3313 29.0032 20.6606Z" stroke="white" stroke-width="1.5" stroke-linecap="round" stroke-linejoin="round"/>
<path d="M22.8718 41.8334C22.1206 41.0824 21.7473 40.2603 21.6608 39.2232C21.5241 37.5835 21.25 34.25 21.25 34.25C21.25 34.25 21.5241 30.9166 21.6608 29.2768C21.7473 28.2398 22.1206 27.4177 22.8718 26.6667M39.1282 41.8334C39.8794 41.0824 40.2527 40.2603 40.3392 39.2232C40.4759 37.5835 40.75 34.25 40.75 34.25C40.75 34.25 40.4759 30.9166 40.3392 29.2768C40.2527 28.2398 39.8794 27.4177 39.1282 26.6667" stroke="white" stroke-width="1.5" stroke-linecap="round" stroke-linejoin="round"/>
<path d="M21.25 41.8334H40.75" stroke="white" stroke-width="1.5" stroke-linecap="round" stroke-linejoin="round"/>
<path d="M21.25 34.25H27.75" stroke="white" stroke-width="1.5" stroke-linecap="round" stroke-linejoin="round"/>
<path d="M34.25 34.25H40.75" stroke="white" stroke-width="1.5" stroke-linecap="round" stroke-linejoin="round"/>
<path d="M27.75 41.8333V33.1667C27.75 31.3741 28.1241 31 29.9167 31H32.0833C33.8759 31 34.25 31.3741 34.25 33.1667V41.8333" stroke="white" stroke-width="1.5" stroke-linecap="round" stroke-linejoin="round"/>
<path d="M31.0097 34.25H31" stroke="white" stroke-width="2" stroke-linecap="round" stroke-linejoin="round"/>
</svg>
