<svg width="30" height="30" viewBox="0 0 30 30" fill="none" xmlns="http://www.w3.org/2000/svg">
<path d="M5.92547 17.9607L8.36689 16.227C9.05557 15.7379 9.75381 15.4102 10.5504 15.1981C11.465 14.9545 11.875 14.4555 11.875 13.3888C11.875 10.6829 18.125 10.3949 18.125 13.3888C18.125 14.4555 18.535 14.9545 19.4496 15.1981C20.2526 15.4119 20.9499 15.7418 21.6331 16.227L24.0745 17.9607C25.1792 18.7452 25.6934 19.1243 25.9802 19.7274C26.25 20.2947 26.25 20.96 26.25 22.2905C26.25 24.6827 26.25 25.8787 25.5802 26.6454C24.769 27.5741 22.66 27.4944 21.3646 27.4944H8.63541C7.33996 27.4944 5.27386 27.6232 4.41975 26.6454C3.75 25.8787 3.75 24.6827 3.75 22.2905C3.75 20.96 3.75 20.2947 4.0198 19.7274C4.30657 19.1243 4.82078 18.7452 5.92547 17.9607Z" stroke="url(#paint0_linear_3_10)" stroke-width="1.5"/>
<path d="M17.5 21.25C17.5 22.6307 16.3807 23.75 15 23.75C13.6193 23.75 12.5 22.6307 12.5 21.25C12.5 19.8693 13.6193 18.75 15 18.75C16.3807 18.75 17.5 19.8693 17.5 21.25Z" stroke="url(#paint1_linear_3_10)" stroke-width="1.5"/>
<path d="M8.70018 4.62216C7.05213 5.09268 5.8673 5.6764 4.78306 6.38069C3.06648 7.49574 2.33054 9.50505 2.53259 11.4439C2.61798 12.2634 3.2758 12.6552 4.03861 12.4432C4.61814 12.2821 5.1986 12.1254 5.77451 11.9546C7.45882 11.455 7.85499 10.8477 8.08905 9.12356L8.70018 4.62216ZM8.70018 4.62216C12.7732 3.45928 17.2268 3.45928 21.2998 4.62216M21.2998 4.62216C22.9479 5.09268 24.1327 5.6764 25.2169 6.38069C26.9335 7.49574 27.6695 9.50505 27.4674 11.4439C27.382 12.2634 26.7242 12.6552 25.9614 12.4432C25.3819 12.2821 24.8014 12.1254 24.2255 11.9546C22.5412 11.455 22.145 10.8477 21.9109 9.12356L21.2998 4.62216Z" stroke="url(#paint2_linear_3_10)" stroke-width="1.5" stroke-linejoin="round"/>
<defs>
<linearGradient id="paint0_linear_3_10" x1="15" y1="11.25" x2="15" y2="27.5" gradientUnits="userSpaceOnUse">
<stop stop-color="#6F6AB0"/>
<stop offset="1" stop-color="#BA7DB6"/>
</linearGradient>
<linearGradient id="paint1_linear_3_10" x1="15" y1="18.75" x2="15" y2="23.75" gradientUnits="userSpaceOnUse">
<stop stop-color="#6F6AB0"/>
<stop offset="1" stop-color="#BA7DB6"/>
</linearGradient>
<linearGradient id="paint2_linear_3_10" x1="15" y1="3.75" x2="15" y2="12.5" gradientUnits="userSpaceOnUse">
<stop stop-color="#6F6AB0"/>
<stop offset="1" stop-color="#BA7DB6"/>
</linearGradient>
</defs>
</svg>
